<svg xmlns="http://www.w3.org/2000/svg" xml:space="preserve" viewBox="0 0 32 32"><g fill="#263238"><path d="M17.5 13c.27 0 .5.23.5.5s-.23.5-.5.5-.5-.23-.5-.5.23-.5.5-.5M8.5 13c.27 0 .5.23.5.5s-.23.5-.5.5-.5-.23-.5-.5.23-.5.5-.5"/></g><g fill="none" stroke-linecap="round" stroke-linejoin="round" stroke-miterlimit="10"><g stroke="#455a64"><path d="m23.43 23.401-2.216-2.215M29.914 27.086l-3.5-3.5c-.756-.756-2.072-.756-2.828 0-.378.378-.586.88-.586 1.414s.208 1.036.586 1.414l3.5 3.5c.378.378.88.586 1.414.586s1.036-.208 1.414-.586.586-.88.586-1.414-.208-1.036-.586-1.414"/><circle cx="13" cy="13" r="11.5"/><path d="M12 15.521c0-.55.45-1 1-1s1 .45 1 1M17.5 13c.27 0 .5.23.5.5s-.23.5-.5.5-.5-.23-.5-.5.23-.5.5-.5M8.5 13c.27 0 .5.23.5.5s-.23.5-.5.5-.5-.23-.5-.5.23-.5.5-.5"/></g><g stroke="#263238"><path d="m23.43 23.401-2.216-2.215M29.914 27.086l-3.5-3.5c-.756-.756-2.072-.756-2.828 0-.378.378-.586.88-.586 1.414s.208 1.036.586 1.414l3.5 3.5c.378.378.88.586 1.414.586s1.036-.208 1.414-.586.586-.88.586-1.414-.208-1.036-.586-1.414"/><circle cx="13" cy="13" r="11.5"/><path d="M12 15.521c0-.55.45-1 1-1s1 .45 1 1M17.5 13c.27 0 .5.23.5.5s-.23.5-.5.5-.5-.23-.5-.5.23-.5.5-.5M8.5 13c.27 0 .5.23.5.5s-.23.5-.5.5-.5-.23-.5-.5.23-.5.5-.5"/></g></g></svg>
