<svg viewBox="0 0 48 48" fill="none" xmlns="http://www.w3.org/2000/svg">
  <path d="M15.3173 34.5C14.8129 34.5 14.3839 34.3232 14.0303 33.9697C13.6768 33.6161 13.5 33.1871 13.5 32.6827V15.3173C13.5 14.8129 13.6768 14.3839 14.0303 14.0303C14.3839 13.6768 14.8129 13.5 15.3173 13.5H28.7351L34.5 19.2649V32.6827C34.5 33.1871 34.3232 33.6161 33.9697 33.9697C33.6161 34.3232 33.1871 34.5 32.6827 34.5H15.3173ZM15.3173 33.4904H32.6827C32.9183 33.4904 33.1118 33.4147 33.2632 33.2632C33.4147 33.1118 33.4904 32.9183 33.4904 32.6827V19.9327H28.0814V14.5096H15.3173C15.0817 14.5096 14.8882 14.5853 14.7368 14.7368C14.5853 14.8882 14.5096 15.0817 14.5096 15.3173V32.6827C14.5096 32.9183 14.5853 33.1118 14.7368 33.2632C14.8882 33.4147 15.0817 33.4904 15.3173 33.4904ZM18.0862 29.091H29.9138V28.0814H18.0862V29.091ZM18.0862 19.9186H24V18.909H18.0862V19.9186ZM18.0862 24.5048H29.9138V23.4952H18.0862V24.5048Z" fill="#1C1B1F"/>
</svg>
