<svg viewBox="0 0 48 48" fill="none" xmlns="http://www.w3.org/2000/svg">
  <path d="M22.7188 35.5625L24 36.7188L25.2813 35.5625C27.4848 33.5391 29.3065 31.7937 30.7464 30.3262C32.1863 28.8587 33.3333 27.5469 34.1875 26.3906C35.0417 25.2344 35.6406 24.1875 35.9844 23.25C36.3281 22.3125 36.5 21.3646 36.5 20.4063C36.5 18.528 35.8698 16.9595 34.6094 15.7007C33.349 14.4419 31.7917 13.8125 29.9375 13.8125C28.8125 13.8125 27.7604 14.0781 26.7812 14.6094C25.8021 15.1406 24.875 15.9688 24 17.0938C23.25 16.0313 22.3698 15.2188 21.3594 14.6563C20.349 14.0938 19.25 13.8125 18.0625 13.8125C16.2083 13.8125 14.651 14.4419 13.3906 15.7007C12.1302 16.9595 11.5 18.528 11.5 20.4063C11.5 21.3646 11.6719 22.3125 12.0156 23.25C12.3594 24.1875 12.9583 25.2344 13.8125 26.3906C14.6667 27.5469 15.8137 28.8587 17.2536 30.3262C18.6935 31.7937 20.5153 33.5391 22.7188 35.5625Z"/>
</svg>
